# xmcd CD database file
#
# Track frame offsets:
#	150
#	17837
#	40447
#	60280
#	79632
#	97292
#	119492
#	139492
#	157530
#	174567
#	195617
#	212775
#	234617
#	256182
#
# Disc length: 3696 seconds
#
# Revision: 0
# Processed by: cddbd v1.5.2PL0 Copyright (c) Steve Scherf et al.
# Submitted via: CDex 1.51
#
DISCID=be0e6e0e
DTITLE=Gregorian - Gregorian - Gold Edition
DYEAR=1900
DGENRE=New Age
TTITLE0=I Still Haven't Found What I'm Looking For
TTITLE1=Brothers in Arms
TTITLE2=Tears in Heaven
TTITLE3=Wish You Were Here
TTITLE4=Moment of Peace
TTITLE5=Hymn
TTITLE6=In The Air Tonight
TTITLE7=Join Me
TTITLE8=Only You
TTITLE9=Sacrifice
TTITLE10=Voyage Voyage
TTITLE11=The Gift
TTITLE12=Bridge Over Troubled Water
TTITLE13=Angels
EXTD=
EXTT0=
EXTT1=
EXTT2=
EXTT3=
EXTT4=
EXTT5=
EXTT6=
EXTT7=
EXTT8=
EXTT9=
EXTT10=
EXTT11=
EXTT12=
EXTT13=
PLAYORDER=
